# xmcd CD database file
#
# Track frame offsets:
#	150
#	17285
#	39667
#
# Disc length: 683 seconds
#
# Revision: 2
# Processed by: cddbd v1.4b41PL1 Copyright (c) Steve Scherf et al.
# Submitted via: Feurio! 1.52 - http://www.feurio.com
#
DISCID=1602a903
DTITLE=Willy De Ville - runnin´ through the jungle
DYEAR=1900
DGENRE=
TTITLE0=runnin´ through the jungle (shootin´ the blues)
TTITLE1=the banks of the pontchartrain
TTITLE2=can´t be satisfied
EXTD=
EXTT0=
EXTT1=
EXTT2=
PLAYORDER=
